HIERARCHY
ROOT Hips
{
  OFFSET 3.09264 85.2347 -7.68631
  CHANNELS 6 Xposition Yposition Zposition Zrotation Xrotation Yrotation
  JOINT Spine
  {
    OFFSET -0.000355721 21.3001 -0.016921
    CHANNELS 3 Zrotation Xrotation Yrotation
    JOINT LeftArm
    {
      OFFSET 13.5181 21.3012 0
      CHANNELS 3 Zrotation Xrotation Yrotation
      JOINT LeftForeArm
      {
        OFFSET 24.5783 0 0
        CHANNELS 3 Zrotation Xrotation Yrotation
        JOINT LeftHand
        {
          OFFSET 24.5783 0 0
          CHANNELS 3 Zrotation Xrotation Yrotation
          End Site
          {
            OFFSET 7.32568 1.52588e-05 0.0169305
          }
        }
      }
    }
    JOINT Head
    {
      OFFSET 0 27.4458 -0.00489235
      CHANNELS 3 Zrotation Xrotation Yrotation
      End Site
      {
        OFFSET 0 0 0
      }
    }
    JOINT RightArm
    {
      OFFSET -13.5174 21.3012 0
      CHANNELS 3 Zrotation Xrotation Yrotation
      JOINT RightForeArm
      {
        OFFSET -24.5783 0 0
        CHANNELS 3 Zrotation Xrotation Yrotation
        JOINT RightHand
        {
          OFFSET -24.5783 0 0
          CHANNELS 3 Zrotation Xrotation Yrotation
          End Site
          {
            OFFSET -7.32568 1.52588e-05 0.0169305
          }
        }
      }
    }
  }
  JOINT RightUpLeg
  {
    OFFSET -8.44614 -9.41038 0.835684
    CHANNELS 3 Zrotation Xrotation Yrotation
    JOINT RightLeg
    {
      OFFSET 0 -40.9639 0
      CHANNELS 3 Zrotation Xrotation Yrotation
      JOINT RightFoot
      {
        OFFSET 0 -40.9639 0
        CHANNELS 3 Zrotation Xrotation Yrotation
        End Site
        {
          OFFSET 0.50614 -9.67405 14.6709
        }
      }
    }
  }
  JOINT LeftUpLeg
  {
    OFFSET 8.44614 -9.41038 0.835684
    CHANNELS 3 Zrotation Xrotation Yrotation
    JOINT LeftLeg
    {
      OFFSET 0 -40.9639 0
      CHANNELS 3 Zrotation Xrotation Yrotation
      JOINT LeftFoot
      {
        OFFSET 0 -40.9639 0
        CHANNELS 3 Zrotation Xrotation Yrotation
        End Site
        {
          OFFSET -0.50614 -9.67405 14.6709
        }
      }
    }
  }
}
MOTION
Frames:	11
Frame Time:	0.0333333
3.09264 85.2347 -7.68631 -8.71636 -1.42231 -48.8218 3.7895 18.2587 -3.12059 -68.3772 6.51932 -16.4318 -0.00952141 -4.19401e-06 -91.1249 -26.7502 -3.4535 -22.3046 -1.2746 9.13405 41.681 67.665 12.9133 -9.01007 -0.000793457 1.44145e-15 101.855 0.0661736 0.376611 25.7619 -8.6051 -4.45791 -14.0416 7.02157 48.3379 -14.9755 -1.25301 -58.6749 -15.5015 28.2617 -23.844 26.45 4.36296 37.3552 7.36913 -12.7501 -27.2999 1.29678 
3.05777 85.2145 -7.67927 -8.69567 -1.41918 -48.8217 3.79234 18.2206 -3.13311 -68.3688 6.47031 -16.508 -0.00952141 -4.19626e-06 -91.1255 -26.695 -3.46481 -22.2902 -1.24621 9.06206 41.6419 67.6344 13.0729 -8.94153 -0.000793457 1.42975e-15 101.757 0.0151169 0.387829 25.8032 -8.58378 -4.51192 -13.9966 6.99031 48.4384 -14.9586 -1.26558 -58.6843 -15.5993 28.306 -23.8808 26.4971 4.34749 37.4488 7.39875 -12.7443 -27.3382 1.25597 
3.01049 85.1688 -7.7044 -8.66947 -1.45282 -48.8461 3.78939 18.1715 -3.17499 -68.4126 6.35392 -16.5694 -0.00952142 -4.62026e-06 -91.2393 -26.7199 -3.56293 -22.271 -1.25799 9.05213 41.6145 67.5227 13.2302 -8.77465 -0.000793457 6.59945e-15 101.73 0.117715 0.39094 25.8392 -8.6617 -4.58446 -14.0481 7.03605 48.6553 -15.011 -1.1694 -58.766 -15.4285 28.3677 -23.905 26.5706 4.30804 37.578 7.44835 -12.7505 -27.3895 1.20295 
2.95715 85.1244 -7.74994 -8.65128 -1.451 -48.8961 3.82129 18.1054 -3.21324 -68.5082 6.16779 -16.6383 -0.00952143 -5.28036e-06 -91.4164 -26.791 -3.62188 -22.2822 -1.27634 9.04135 41.5683 67.3474 13.4848 -8.52121 -0.000793457 1.17638e-14 101.721 0.394236 0.413905 25.9173 -8.6158 -4.70374 -14.0038 6.97797 48.8654 -14.9878 -1.23331 -58.8661 -15.4514 28.5032 -23.9224 26.6999 4.24532 37.6848 7.51807 -12.7492 -27.4051 1.13415 
2.8874 85.0464 -7.81647 -8.59598 -1.44945 -48.9515 3.83404 18.0362 -3.24849 -68.6385 5.98596 -16.7778 -0.00952145 -6.00809e-06 -91.6116 -26.9154 -3.75093 -22.2549 -1.29423 8.85132 41.5377 67.1163 13.8394 -8.16182 -0.000793457 -1.17598e-14 101.717 0.571823 0.388104 26.0156 -8.63227 -4.88021 -14.0053 6.98646 49.1624 -15.022 -1.02731 -59.0535 -15.2658 28.6521 -24.0213 26.8206 4.19782 37.8886 7.57844 -12.7616 -27.4413 1.12059 
2.83144 84.9404 -7.89888 -8.54394 -1.48939 -49.0383 3.80705 18.0249 -3.32664 -68.8172 5.72067 -16.8898 -0.00952148 -7.03003e-06 -91.8859 -27.1489 -3.90535 -22.1823 -1.45463 8.74563 41.5854 66.8862 14.1741 -7.74442 -0.000793457 1.42254e-15 101.697 0.952921 0.358344 26.0873 -8.75098 -5.0766 -14.0834 7.00028 49.5965 -15.081 -0.636405 -59.3258 -14.5765 28.8316 -24.1139 26.9773 4.09139 38.1748 7.67299 -12.8302 -27.5002 1.08762 
2.79499 84.8719 -7.92865 -8.49054 -1.39895 -49.097 3.86251 17.7316 -3.3265 -69.2197 5.48193 -17.1487 -0.00952148 -6.84037e-06 -91.835 -27.2184 -3.85722 -22.2042 -1.48824 8.99439 41.2014 66.6547 14.5213 -7.40548 -0.000793457 1.42082e-15 101.683 1.38177 0.358561 26.2473 -8.77742 -5.20951 -14.1967 7.01191 49.7381 -15.1111 -0.0531501 -59.5768 -13.791 29.0394 -24.3228 27.1174 4.10672 38.4642 7.69465 -13.0356 -27.4649 1.15394 
2.55955 84.8238 -7.77516 -8.29624 -1.80072 -48.7323 4.04094 16.6124 -3.16857 -70.2811 5.63096 -19.1578 -0.00952143 5.17583e-06 -88.6117 -28.7899 -4.41299 -22.7182 -0.550111 8.76038 39.4079 66.3862 14.1824 -7.3349 -0.000793457 1.4985e-15 102.331 1.4036 0.202525 25.9016 -9.84946 -4.5361 -15.1886 7.70759 49.6457 -15.6521 3.19357 -59.6635 -10.7941 28.16 -24.6023 26.2424 4.69625 38.8849 7.3925 -13.2675 -27.3722 1.71333 
1.99539 84.7312 -7.38249 -8.45114 -3.86899 -47.9289 4.42591 15.082 -2.86517 -72.0099 6.68053 -23.5876 -0.00952426 3.50423e-05 -80.5587 -32.216 -5.00383 -23.4845 1.54986 7.37068 36.0138 67.1933 13.3953 -7.28924 -0.000793457 -1.57302e-15 102.955 1.91779 -0.629468 24.788 -12.1447 -2.25738 -16.7088 7.82608 50.4134 -15.9471 7.59783 -59.1009 -6.37153 25.4816 -23.6469 23.8557 5.623 39.5179 6.86614 -13.3947 -27.578 2.60513 
1.3704 84.4878 -6.7466 -9.84703 -7.14873 -47.2642 5.66055 13.5141 -2.72625 -72.8802 9.44937 -26.0971 -0.00952933 5.7784e-05 -74.3063 -31.7181 -4.9592 -24.6344 5.36769 4.45794 31.7613 69.4758 15.0802 -6.41732 -0.000793457 7.32342e-15 103.039 1.40679 -1.22136 24.1997 -13.5895 1.49197 -16.9701 5.99592 51.7413 -14.8441 8.30428 -58.5815 -5.83688 22.9339 -20.932 21.5831 6.42534 40.9082 6.31087 -13.7238 -28.4247 2.7071 
0.811313 83.9229 -6.02127 -11.4224 -10.6462 -46.6021 7.73254 11.2552 -3.35909 -72.6394 10.954 -25.652 -0.00952884 5.60232e-05 -74.7962 -31.2232 -6.9835 -25.7382 10.097 -1.2414 28.4569 70.9778 18.4767 -3.9759 -0.000793457 1.76268e-15 104.549 -3.26911 1.91723 22.962 -14.5135 5.46953 -16.3372 3.65956 52.9854 -13.2534 6.88297 -59.3566 -8.41625 21.2839 -18.3579 20.2885 6.69351 43.5467 5.92174 -14.0906 -29.4285 1.62443 
